<svg xmlns="http://www.w3.org/2000/svg" viewBox="0 0 500 500"><defs><style>.cls-1{fill:none;stroke:#f2eadf;stroke-linecap:round;stroke-miterlimit:10;stroke-width:10px;}.cls-2{fill:#f2eadf;}</style></defs><g id="Layer_14" data-name="Layer 14"><line class="cls-1" x1="158.3" y1="471.45" x2="144.66" y2="495.07"/><line class="cls-1" x1="340.13" y1="471.45" x2="353.77" y2="495.07"/><path class="cls-2" d="M394,112a44.07,44.07,0,0,1-.48,8.28,4.22,4.22,0,0,0,1.54,4.21,49.07,49.07,0,0,1,9.7,12.43c5.08,9.6,4.09,19.24-2.68,27.62a53.61,53.61,0,0,1-14.24,11.79c-8.93,5.42-18.48,9.48-28.09,13.35-1.92.77-2.35,1.6-2.12,3.7,1.88,17.16,1.95,34.4,1.74,51.64-.08,6.52-.36,13-.57,19.55,0,.69.14,1.56-.59,1.93s-1.11-.35-1.46-.79c-9.38-11.84-23.95-3.66-37.44-7.63-14.17-4.17-30.69,1.69-45.3,0-11.87-1.37-25.22-.37-37.18,0-26.23.81-45.93-6.38-69.42,6.41-5.73,3.13-11.77-3.86-16.71.48-.65.58-1.35,1.1-2,1.65-1.31,1-2,.83-2-1,.06-2.41,0-4.83.14-7.24.84-13.47.38-27,.42-40.45,0-7.95-.1-15.91.08-23.86.06-2.67-.69-3.92-3.21-4.76A96.4,96.4,0,0,1,112,171.76c-9.78-8.25-17.66-18-19.44-31.47-1.74-13.16.83-25.43,9.3-35.88a6.56,6.56,0,0,0,1.78-4.55c-.79-27.82,16-45.8,38.89-53.26,5.76-1.88,11.76-2.57,17.66-3.71a48.18,48.18,0,0,0,21.8-10.36c19.79-16.27,42-26.94,67-31.23,20.55-3.54,39.72-.08,56.66,13.16,6.61,5.16,11.56,11.75,13.52,20.3.49,2.11,1.85,2.34,3.37,2.62a93.88,93.88,0,0,1,36.34,14.44c14.1,9.48,25.39,21.54,31.45,38.2A60.63,60.63,0,0,1,394,112ZM129.59,119.6a30.83,30.83,0,0,0-7.18,3.67c-4.9,3.47-7.83,8-6.87,14.46.63,4.22,3.42,7.13,6.09,10,8.2,8.83,18.21,15.12,28.18,21.47,1.44.92,2.1.4,2.78-1a32.29,32.29,0,0,1,12.61-13.42,3.3,3.3,0,0,0,1.87-3.61A236.9,236.9,0,0,1,166,121.81c.18-4.69.61-9.37.92-14,1.58,4,2.55,8,4,11.91,3.23,8.78,6.89,17.33,12.32,24.94.78,1.09,1.45,2,3.12,1.65,5.61-1.31,11.26-2.49,16.91-3.61,1.39-.27,1.83-1,1.9-2.31.75-14.41,4.53-28.14,8.78-41.75,1.36-4.32,3.21-8.48,4.92-12.94a3.63,3.63,0,0,1,.67,3.16,198.76,198.76,0,0,0,.19,24.89c.49,8.08,1.79,16,5.69,23.15,1,1.83,2.18,2.69,4.34,2.45a142.06,142.06,0,0,1,17.74-.9c5.41.07,10.81.3,16.22.53a3.08,3.08,0,0,0,3.41-2.07c6.33-13.79,15.55-25,28.2-32.88a16.77,16.77,0,0,1,5.31-2.51c-1.39,3-2.7,5.6-3.81,8.29-3.88,9.4-6.83,19.07-7.62,29.35-.17,2.14.62,3,2.6,3.42A200.94,200.94,0,0,1,324,151a2.77,2.77,0,0,0,3.54-1.07c4.11-4.93,8.39-9.71,13.58-13.46,1-.71,1.94-1.64,3.36-1.51-.05,1.22-.81,1.77-1.29,2.49-3.1,4.6-6.51,9-9.19,13.9-1.24,2.26-1,3.29,1.47,4.25,10.25,4,18.4,10.14,19.85,22.57.18,1.61,1,1.86,2.35,1.25,2.28-1,4.6-2,6.9-3,8.89-3.86,17.58-8.05,25.37-14.11,8.47-6.6,9.83-15.06,3.56-23.94-.76-1.08-1.64-2.07-2.43-3.13a3.94,3.94,0,0,0-4.11-1.6c-5.12.86-10.29.61-15.43.44A32.81,32.81,0,0,1,360,131.78a7.37,7.37,0,0,1,3.37-1.34,37.93,37.93,0,0,0,11.29-5.14c6.32-4.44,10-10.43,9.88-18.59A38.25,38.25,0,0,0,378.94,88c-11.54-20-28.65-32.3-50.06-38.53-2.29-.67-3.22-.1-3.81,2.28a49.24,49.24,0,0,1-14.7,24.69,33.7,33.7,0,0,1-11,7.23,8.83,8.83,0,0,1,.48-1.25c.37-.6.77-1.18,1.16-1.77a48.31,48.31,0,0,0,7.82-35.13C306.09,27.62,294.53,15.82,277,12c-11.34-2.44-22.72-2-34,0-14.4,2.56-28,7.4-39.81,16.58s-18.8,21.16-17.88,37.09c.13,2.17.49,4.32.76,6.63-1.27-.39-1.37-1.39-1.74-2.13A53,53,0,0,0,179,62a19.45,19.45,0,0,0-16.55-8.21,64.3,64.3,0,0,0-12.74,1.77c-19.22,4.09-32.65,17.79-35.87,37-1.56,9.25.8,17.2,8.84,22.56C124.81,116.53,127,117.93,129.59,119.6Zm195.15,90.15a249.75,249.75,0,0,0-3.05-44.05c-.64-4.11-2.27-6-6.21-7.07-21.92-5.9-44.28-8-66.8-8.77a254.49,254.49,0,0,0-30.37,1.07,172.61,172.61,0,0,0-29,4.74c-1.9.5-3,1.43-3.3,3.52-.18,1.32-.63,2.59-.9,3.9-2.84,14-3.28,28.34-3.56,42.61-.18,9.09.3,18.2.86,27.29.12,2,.8,2.11,2.4,1.55,24.63-8.48,49.91-11.24,75.73-9.49,20.52,1.4,40.84,4.15,60.73,9.73,2.26.64,2.89-.05,3-2.33C324.54,224.69,325,216.93,324.74,209.75Z"/><path class="cls-2" d="M147.49,393.32H143.9l-4.09,14.13h3.66a7.5,7.5,0,0,0,4.95-1.54c1.24-1,2.25-2.88,3-5.56a11.21,11.21,0,0,0,.51-3.16C151.94,394.61,150.45,393.32,147.49,393.32Z"/><path class="cls-2" d="M385.9,252.38H114.1A18.15,18.15,0,0,0,96,270.53V453.3a18.15,18.15,0,0,0,18.14,18.15H385.9A18.15,18.15,0,0,0,404,453.3V270.53A18.15,18.15,0,0,0,385.9,252.38Zm-52.37,44.85a7.55,7.55,0,0,0-1-1.08,4.65,4.65,0,0,1-1-1,1.29,1.29,0,0,1-.08-1.14q.43-1.65,4.53-2.91a28.79,28.79,0,0,1,8.54-1.26,7.85,7.85,0,0,1,5.66,2A6.6,6.6,0,0,1,352,297.3a17.06,17.06,0,0,1,6.24-5.85,16.09,16.09,0,0,1,7.18-1.62,9.64,9.64,0,0,1,7.07,2.66,9.27,9.27,0,0,1,2.69,6.89,13.77,13.77,0,0,1-.72,4.38l-4.38,14.13a2.15,2.15,0,0,0-.14.87,1.13,1.13,0,0,0,.25.78.84.84,0,0,0,.68.29,1.82,1.82,0,0,0,1.47-.75c.41-.5.69-.76.83-.76s.43.16.57.47a2.53,2.53,0,0,1,.22,1.11,6.47,6.47,0,0,1-1.36,4.06,10.43,10.43,0,0,1-4.2,3.23,16.09,16.09,0,0,1-6.64,1.25,11.92,11.92,0,0,1-7.54-2.19,7.25,7.25,0,0,1-2.87-5.85,16.62,16.62,0,0,1,1.3-5.95l3.94-10.33a4.52,4.52,0,0,0,.36-1.51,1.85,1.85,0,0,0-.61-1.47,2.15,2.15,0,0,0-1.47-.54,4.2,4.2,0,0,0-3,1.47,8.62,8.62,0,0,0-2.08,3.62l-4.45,14.64a4.24,4.24,0,0,0-.29,1.51,2.49,2.49,0,0,0,.36,1.4,5.82,5.82,0,0,0,1,1.11,3.31,3.31,0,0,1,.72.79,1,1,0,0,1,.07.86,2.13,2.13,0,0,1-1.36,1.37,9.9,9.9,0,0,1-3.37.43H326.1a4.66,4.66,0,0,1-2.69-.61,1.49,1.49,0,0,1-.61-1.62,2.88,2.88,0,0,1,1.51-1.5,6.48,6.48,0,0,0,1.79-1.37,6.29,6.29,0,0,0,1.22-2.51l6.39-20.74a2.69,2.69,0,0,0,.14-1A2,2,0,0,0,333.53,297.23ZM295.07,294a24.08,24.08,0,0,1,14.74-4.48q9.12,0,13.21,2.9a8.81,8.81,0,0,1,4.09,7.43,10.36,10.36,0,0,1-.29,2.51,9.35,9.35,0,0,1-6,6.78,29.93,29.93,0,0,1-11.59,2,44.84,44.84,0,0,1-6.32-.43c0,2.49.63,4.23,2,5.24a9.83,9.83,0,0,0,5.82,1.5,13.8,13.8,0,0,0,3.3-.39c1.05-.26,2.39-.66,4-1.19a10.43,10.43,0,0,1,2.72-.71c.53,0,.79.31.79.93a8.78,8.78,0,0,1-1.86,5.27,15.23,15.23,0,0,1-5.74,4.7,20,20,0,0,1-9.19,1.94q-8,0-13.06-4t-5.1-11.69a25.62,25.62,0,0,1,.58-5Q289,298.45,295.07,294Zm-40.19,0a24.11,24.11,0,0,1,14.75-4.48q9.11,0,13.2,2.9a8.78,8.78,0,0,1,4.09,7.43,10.36,10.36,0,0,1-.29,2.51,9.33,9.33,0,0,1-6,6.78,29.93,29.93,0,0,1-11.59,2,44.59,44.59,0,0,1-6.31-.43c-.05,2.49.62,4.23,2,5.24a9.77,9.77,0,0,0,5.81,1.5,13.68,13.68,0,0,0,3.3-.39c1.05-.26,2.39-.66,4-1.19a10.47,10.47,0,0,1,2.73-.71c.52,0,.79.31.79.93a8.86,8.86,0,0,1-1.87,5.27,15.23,15.23,0,0,1-5.74,4.7A20,20,0,0,1,264.6,328q-8,0-13.06-4t-5.09-11.69a26.31,26.31,0,0,1,.57-5Q248.82,298.45,254.88,294ZM249,408.46a5.37,5.37,0,0,0,.75,1.22,3.3,3.3,0,0,1,.64,1.65,3.79,3.79,0,0,1-.14.72,2.41,2.41,0,0,1-1.4,1.36,8,8,0,0,1-3,.43H229a4.53,4.53,0,0,1-2.33-.5,1.6,1.6,0,0,1-.83-1.44,1.86,1.86,0,0,1,.22-.86,2.65,2.65,0,0,1,.68-1,13.52,13.52,0,0,1,1.18-.82,7.8,7.8,0,0,0,1.8-1.44,6.57,6.57,0,0,0,1.22-2.44l9-32.07h-1.65a5.75,5.75,0,0,0-2.59.5,7.19,7.19,0,0,0-2.15,1.86l-2.37,2.95a14.26,14.26,0,0,1-3.19,2.9,6.13,6.13,0,0,1-3.34,1,3.67,3.67,0,0,1-2.58-.86,3.07,3.07,0,0,1-.93-2.37,6.75,6.75,0,0,1,.21-1.58l1.87-6.53a10.61,10.61,0,0,1,1.29-3.05,4,4,0,0,1,2.05-1.5,11.55,11.55,0,0,1,3.76-.47h41.84q3.94,0,4,3.23a9.81,9.81,0,0,1-.43,2.51L274,377.67a8.35,8.35,0,0,1-1.93,3.73,4.65,4.65,0,0,1-3.3,1.08,3.85,3.85,0,0,1-2.77-.93,9.2,9.2,0,0,1-1.83-2.94L263,375.66a4.54,4.54,0,0,0-1.22-1.86,3.23,3.23,0,0,0-2-.5h-1.65L249,405.37a7.74,7.74,0,0,0-.22,1.65A3.53,3.53,0,0,0,249,408.46ZM209.49,294c.29-1.1,1.79-2.07,4.52-2.91a28.84,28.84,0,0,1,8.54-1.26,8.48,8.48,0,0,1,4.88,1.33,6.07,6.07,0,0,1,2.51,3.77q3.45-5.1,9-5.1a8.66,8.66,0,0,1,6.43,2.44,8.27,8.27,0,0,1,2.4,6,10.36,10.36,0,0,1-.29,2.51,7.82,7.82,0,0,1-2.72,4.52,7.52,7.52,0,0,1-4.81,1.58,5.91,5.91,0,0,1-4.13-1.29,11.75,11.75,0,0,1-2.47-3.44,8.78,8.78,0,0,0-1.08-1.8,1.51,1.51,0,0,0-1.15-.57,1.65,1.65,0,0,0-1.25.57,5.19,5.19,0,0,0-1,2l-5.53,17.94a3,3,0,0,0-.14,1.08,2.23,2.23,0,0,0,.54,1.54,6.21,6.21,0,0,0,1.47,1.19,5.3,5.3,0,0,1,1.14.93,1.15,1.15,0,0,1,.22.93,1.75,1.75,0,0,1-1,1.37,7.8,7.8,0,0,1-3,.43H204.18a4.66,4.66,0,0,1-2.69-.61,1.48,1.48,0,0,1-.61-1.62,2.85,2.85,0,0,1,1.5-1.5,6.68,6.68,0,0,0,1.8-1.37,6.43,6.43,0,0,0,1.22-2.51l6.39-20.74a2.92,2.92,0,0,0,.14-1,2,2,0,0,0-.32-1.22,8.88,8.88,0,0,0-1-1.08,4.74,4.74,0,0,1-1-1A1.32,1.32,0,0,1,209.49,294Zm-42.91,13.42q1.93-8.91,8.57-13.42a27.27,27.27,0,0,1,15.75-4.52,21.47,21.47,0,0,1,7.68,1.25,12.16,12.16,0,0,1,5.13,3.45,7.37,7.37,0,0,1,1.83,4.84,6.24,6.24,0,0,1-2,4.74,7.49,7.49,0,0,1-5.35,1.86,7.68,7.68,0,0,1-5.38-1.76,6.12,6.12,0,0,1-1.94-4.77,11.75,11.75,0,0,1,.43-3,11.59,11.59,0,0,0-8.46,9.25,19.79,19.79,0,0,0-.43,3.88,7.66,7.66,0,0,0,2.15,5.89,8.69,8.69,0,0,0,6.17,2,14.73,14.73,0,0,0,4-.46,22.9,22.9,0,0,0,3.37-1.26,5.53,5.53,0,0,1,2.08-.72.73.73,0,0,1,.57.18,1.29,1.29,0,0,1,.15.76,8.76,8.76,0,0,1-2.19,5.56,17.75,17.75,0,0,1-6.24,4.88,19.83,19.83,0,0,1-8.94,2,21,21,0,0,1-9.15-1.9,14.37,14.37,0,0,1-6.17-5.45,15.48,15.48,0,0,1-2.19-8.29A23.79,23.79,0,0,1,166.58,307.42ZM123,313.73a7.41,7.41,0,0,1,5-1.58,9,9,0,0,1,6.13,2.23,7.18,7.18,0,0,1,2.55,5.67,9.41,9.41,0,0,1-.21,1.93,13.36,13.36,0,0,0,3.3.43,4.67,4.67,0,0,0,3.08-1,3.4,3.4,0,0,0,1.22-2.8,3.69,3.69,0,0,0-1.65-2.83,31.31,31.31,0,0,0-5-2.84,47.63,47.63,0,0,1-5.31-2.83,13.12,13.12,0,0,1-3.55-3.34A7.82,7.82,0,0,1,127,302a10.9,10.9,0,0,1,4.92-9.36q4.92-3.48,14-3.48a43.69,43.69,0,0,1,10.3,1.07,16.71,16.71,0,0,1,6.67,3,5.64,5.64,0,0,1,2.33,4.38,5,5,0,0,1-2,4.09,8.6,8.6,0,0,1-5.49,1.58,10,10,0,0,1-6.06-1.8,5.43,5.43,0,0,1-2.19-6.31,8.69,8.69,0,0,0-2.3-.36,4.89,4.89,0,0,0-3,.86,2.67,2.67,0,0,0-1.11,2.44,3.77,3.77,0,0,0,1.87,3.16,45.06,45.06,0,0,0,6,3.23,64.91,64.91,0,0,1,5.92,2.9,13.77,13.77,0,0,1,4,3.34,7.32,7.32,0,0,1,1.62,4.74,15,15,0,0,1-.29,2.15q-1.15,4.8-6.39,7.61T142,328.08q-9.61,0-15.25-2.58t-5.63-7.1A5.76,5.76,0,0,1,123,313.73Zm34,133.18a6.62,6.62,0,0,1-1.09.89,6,6,0,0,1-1.25.66,6.2,6.2,0,0,1-1.33.41,7.07,7.07,0,0,1-2.8,0,6.38,6.38,0,0,1-1.35-.41,6.63,6.63,0,0,1-1.23-.66,6.23,6.23,0,0,1-1.09-.89,7.17,7.17,0,0,1,0-10.14,6.88,6.88,0,0,1,1.11-.89,6.63,6.63,0,0,1,1.23-.66,7,7,0,0,1,1.35-.42,7,7,0,0,1,2.8,0,6.85,6.85,0,0,1,1.33.42,6,6,0,0,1,1.25.66,7.17,7.17,0,0,1,1.09,11Zm18.32-66q-2.09,7.25-12,9.19a11.13,11.13,0,0,1,5.45,3.33,8.57,8.57,0,0,1,2,5.78,14.86,14.86,0,0,1-.57,3.73,13.23,13.23,0,0,1-6.35,8.29q-4.78,2.7-13.53,2.69H120.5a4.46,4.46,0,0,1-2.33-.5,1.52,1.52,0,0,1-.82-1.36,2.47,2.47,0,0,1,.21-.94,2.4,2.4,0,0,1,.94-1.22l.78-.5a9.67,9.67,0,0,0,1.87-1.47,6,6,0,0,0,1.22-2.48l8.76-30.93a6.06,6.06,0,0,0,.28-1.79,3.1,3.1,0,0,0-.25-1.33,14,14,0,0,0-.68-1.25,3,3,0,0,1-.65-1.51,3.81,3.81,0,0,1,.15-.79,2.06,2.06,0,0,1,1.25-1.33,8.51,8.51,0,0,1,3-.39H159.9a22.56,22.56,0,0,1,8.51,1.47,12.6,12.6,0,0,1,5.52,4,9.51,9.51,0,0,1,1.9,5.85A11.13,11.13,0,0,1,175.33,380.9ZM178,413.41a1.52,1.52,0,0,1-.82-1.36,2.47,2.47,0,0,1,.21-.94,2.4,2.4,0,0,1,.94-1.22l.78-.5a9.67,9.67,0,0,0,1.87-1.47,6,6,0,0,0,1.22-2.48L191,374.51a6.06,6.06,0,0,0,.28-1.79,3.1,3.1,0,0,0-.25-1.33,14,14,0,0,0-.68-1.25,3,3,0,0,1-.65-1.51,3.81,3.81,0,0,1,.15-.79,2.06,2.06,0,0,1,1.25-1.33,8.51,8.51,0,0,1,3-.39h16.87a4.69,4.69,0,0,1,2.33.47,1.44,1.44,0,0,1,.82,1.32,2.84,2.84,0,0,1-.21.93,2.92,2.92,0,0,1-.61.9,3.31,3.31,0,0,1-.72.58,2.08,2.08,0,0,0-.47.32,7.61,7.61,0,0,0-1.86,1.43,6.36,6.36,0,0,0-1.22,2.44l-8.69,30.93a6.17,6.17,0,0,0-.28,1.8,3.52,3.52,0,0,0,.25,1.43,5.93,5.93,0,0,0,.75,1.22,3,3,0,0,1,.65,1.51,4,4,0,0,1-.15.72,2,2,0,0,1-1.29,1.4,8.78,8.78,0,0,1-3,.39H180.35A4.46,4.46,0,0,1,178,413.41ZM303.43,449H196.57a7.18,7.18,0,0,1,0-14.35H303.43a7.18,7.18,0,0,1,0,14.35ZM328,372.36,326.18,379a4.89,4.89,0,0,1-1.48,2.69,4.4,4.4,0,0,1-2.76.75,4.3,4.3,0,0,1-2.69-.75,4.67,4.67,0,0,1-1.47-2.48l-1.15-4.09a3.62,3.62,0,0,0-.86-1.72,3.09,3.09,0,0,0-1.94-.43H306.3l-3.59,12.77h3.16a2.48,2.48,0,0,0,1.36-.72l2.44-2.15a11.37,11.37,0,0,1,1.87-1.36,3.93,3.93,0,0,1,1.93-.43,3.19,3.19,0,0,1,2.12.68,2.18,2.18,0,0,1,.83,1.76,3.75,3.75,0,0,1-.15.86l-2.94,10a4.13,4.13,0,0,1-1.47,2.34,3.78,3.78,0,0,1-2.26.75,3.22,3.22,0,0,1-3-2.08l-1.22-2.51a1.65,1.65,0,0,0-1.57-1.08H301L296.75,407h6.32a5.24,5.24,0,0,0,2.4-.53,8.32,8.32,0,0,0,2.26-1.91l4.31-4.73a8.19,8.19,0,0,1,2.19-1.76,5.47,5.47,0,0,1,2.55-.54,4.32,4.32,0,0,1,2.58.72,2.46,2.46,0,0,1,1,2.15,5.38,5.38,0,0,1-.21,1.36L318.07,409a6.84,6.84,0,0,1-2.3,3.81,7.53,7.53,0,0,1-4.38,1.07H277.16a4.46,4.46,0,0,1-2.33-.5,1.53,1.53,0,0,1-.83-1.36,2.5,2.5,0,0,1,.22-.94,2.44,2.44,0,0,1,.93-1.22l.79-.5a9.67,9.67,0,0,0,1.87-1.47,6.26,6.26,0,0,0,1.22-2.48l8.82-30.93a5.58,5.58,0,0,0,.29-1.72,3.52,3.52,0,0,0-.25-1.43,6.2,6.2,0,0,0-.75-1.22,3,3,0,0,1-.65-1.51,4.35,4.35,0,0,1,.14-.79,2.09,2.09,0,0,1,1.3-1.33,8.52,8.52,0,0,1,2.94-.39h31.86a6.55,6.55,0,0,1,4.13,1.15,3.78,3.78,0,0,1,1.47,3.15A6.6,6.6,0,0,1,328,372.36Zm54.4-2.22-3,9.9a5.46,5.46,0,0,1-1.25,2.44,3.16,3.16,0,0,1-2.26.72,4.22,4.22,0,0,1-2.77-1,33.5,33.5,0,0,1-3.69-4,19.52,19.52,0,0,0-4.56-4.06,8.25,8.25,0,0,0-4.2-1.18,3.67,3.67,0,0,0-2.65,1A3.39,3.39,0,0,0,357,376.6a4.23,4.23,0,0,0,1.72,3.19,44,44,0,0,0,5.39,3.69q3.72,2.24,6.17,4A17,17,0,0,1,374.4,392a11,11,0,0,1,1.72,6.1,14.33,14.33,0,0,1-.72,4.45,14.68,14.68,0,0,1-6.67,8.72,21.93,21.93,0,0,1-11.55,3,26,26,0,0,1-8.33-1.15,24.11,24.11,0,0,1-6.89-3.87l-2.58,2.15a14.77,14.77,0,0,1-2.94,2,6,6,0,0,1-2.59.54,4,4,0,0,1-2.62-.79,2.62,2.62,0,0,1-1-2.15,4.45,4.45,0,0,1,.28-1.51l3.52-10.69a5.27,5.27,0,0,1,1.58-2.66,4.09,4.09,0,0,1,2.58-.78,4.47,4.47,0,0,1,3,1.14,26.16,26.16,0,0,1,3.48,4.17,17.1,17.1,0,0,0,4.27,4.59,8.4,8.4,0,0,0,4.7,1.29,5.94,5.94,0,0,0,3-.61,3.33,3.33,0,0,0,1.47-2,3.24,3.24,0,0,0,.14-1.08,4.17,4.17,0,0,0-1.65-3.16,35.93,35.93,0,0,0-5.09-3.44,68.55,68.55,0,0,1-6-4,17,17,0,0,1-4-4.42,11.34,11.34,0,0,1-1.69-6.24,15.86,15.86,0,0,1,.79-4.95,14.27,14.27,0,0,1,6.17-8,19.28,19.28,0,0,1,10.7-3,26.91,26.91,0,0,1,7.42,1,29.29,29.29,0,0,1,6.93,3l1.65-1.37a14.47,14.47,0,0,1,2.83-1.86,6,6,0,0,1,2.55-.51,4.47,4.47,0,0,1,2.73.76,2.56,2.56,0,0,1,1,2.19A4,4,0,0,1,382.44,370.14Z"/><path class="cls-2" d="M152.94,372.58h-3.23L145.91,386h3.16a7.2,7.2,0,0,0,4.77-1.47c1.17-1,2.12-2.74,2.83-5.28a9.58,9.58,0,0,0,.51-2.94C157.18,373.82,155.76,372.58,152.94,372.58Z"/><path class="cls-2" d="M308.81,303.68a12,12,0,0,0,1.51-6.24c-.05-1.34-.43-2-1.15-2-.53,0-1.15.42-1.87,1.26a14.22,14.22,0,0,0-2.12,3.77,33.15,33.15,0,0,0-1.75,6,3.28,3.28,0,0,0,.79.07A5,5,0,0,0,308.81,303.68Z"/><path class="cls-2" d="M268.62,303.68a11.93,11.93,0,0,0,1.51-6.24c-.05-1.34-.43-2-1.15-2-.53,0-1.15.42-1.87,1.26a14.23,14.23,0,0,0-2.11,3.77,33.11,33.11,0,0,0-1.76,6,3.28,3.28,0,0,0,.79.07A5,5,0,0,0,268.62,303.68Z"/></g></svg>