<svg xmlns="http://www.w3.org/2000/svg" viewBox="0 0 316.01 500"><defs><style>.cls-1{fill:none;stroke:#3d3737;stroke-linecap:round;stroke-miterlimit:10;stroke-width:10px;}.cls-2{fill:#3d3737;}</style></defs><g id="Layer_14" data-name="Layer 14"><line class="cls-1" x1="248.13" y1="471.45" x2="261.77" y2="495.07"/><line class="cls-1" x1="66.3" y1="471.45" x2="52.66" y2="495.07"/><path class="cls-2" d="M302,112a43.25,43.25,0,0,1-.48,8.28,4.22,4.22,0,0,0,1.54,4.21,48.84,48.84,0,0,1,9.7,12.43c5.09,9.6,4.1,19.24-2.68,27.62a53.57,53.57,0,0,1-14.23,11.79c-8.93,5.42-18.48,9.48-28.1,13.35-1.92.77-2.34,1.6-2.11,3.7,1.87,17.16,1.95,34.4,1.73,51.64-.08,6.52-.36,13-.57,19.55,0,.69.15,1.56-.58,1.93s-1.11-.35-1.47-.79c-9.38-11.84-23.95-3.66-37.44-7.63-14.17-4.17-30.68,1.69-45.29,0-11.87-1.37-25.23-.37-37.18,0-26.24.81-45.94-6.38-69.42,6.41-5.74,3.13-11.78-3.86-16.72.48-.65.58-1.35,1.1-2,1.65-1.31,1-2,.83-2-1,0-2.41,0-4.83.13-7.24.84-13.47.38-27,.42-40.45,0-7.95-.1-15.91.08-23.86.06-2.67-.69-3.92-3.21-4.76A96.36,96.36,0,0,1,20,171.76c-9.79-8.25-17.67-18-19.45-31.47-1.74-13.16.84-25.43,9.3-35.88a6.61,6.61,0,0,0,1.79-4.55c-.8-27.82,16-45.8,38.88-53.26,5.76-1.88,11.76-2.57,17.67-3.71A48.23,48.23,0,0,0,90,32.53c19.79-16.27,42-26.94,67-31.23,20.55-3.54,39.72-.08,56.67,13.16,6.61,5.16,11.55,11.75,13.52,20.3.48,2.11,1.84,2.34,3.36,2.62a94,94,0,0,1,36.35,14.44c14.09,9.48,25.39,21.54,31.44,38.2A60.63,60.63,0,0,1,302,112ZM37.59,119.6a30.76,30.76,0,0,0-7.17,3.67c-4.91,3.47-7.84,8-6.88,14.46.63,4.22,3.42,7.13,6.1,10,8.2,8.83,18.2,15.12,28.17,21.47,1.44.92,2.1.4,2.78-1A32.29,32.29,0,0,1,73.2,154.84a3.3,3.3,0,0,0,1.87-3.61,236.89,236.89,0,0,1-1-29.42c.17-4.69.6-9.37.91-14,1.59,4,2.55,8,4,11.91,3.24,8.78,6.89,17.33,12.32,24.94.79,1.09,1.45,2,3.13,1.65,5.61-1.31,11.25-2.49,16.9-3.61a2.07,2.07,0,0,0,1.91-2.31c.74-14.41,4.52-28.14,8.78-41.75,1.35-4.32,3.2-8.48,4.92-12.94a3.67,3.67,0,0,1,.67,3.16,198.76,198.76,0,0,0,.18,24.89c.49,8.08,1.79,16,5.69,23.15,1,1.83,2.18,2.69,4.34,2.45a142.15,142.15,0,0,1,17.74-.9c5.41.07,10.82.3,16.22.53a3.08,3.08,0,0,0,3.41-2.07c6.33-13.79,15.55-25,28.21-32.88a16.67,16.67,0,0,1,5.31-2.51c-1.4,3-2.71,5.6-3.82,8.29-3.87,9.4-6.83,19.07-7.62,29.35-.17,2.14.62,3,2.61,3.42A200.82,200.82,0,0,1,232,151a2.77,2.77,0,0,0,3.54-1.07c4.11-4.93,8.39-9.71,13.59-13.46,1-.71,1.93-1.64,3.35-1.51,0,1.22-.81,1.77-1.29,2.49-3.09,4.6-6.5,9-9.19,13.9-1.24,2.26-1,3.29,1.47,4.25,10.25,4,18.4,10.14,19.85,22.57.19,1.61,1,1.86,2.35,1.25,2.28-1,4.6-2,6.9-3,8.89-3.86,17.59-8.05,25.37-14.11,8.47-6.6,9.83-15.06,3.56-23.94-.76-1.08-1.64-2.07-2.43-3.13a3.94,3.94,0,0,0-4.11-1.6c-5.12.86-10.29.61-15.43.44A32.85,32.85,0,0,1,268,131.78a7.41,7.41,0,0,1,3.38-1.34,38,38,0,0,0,11.28-5.14c6.32-4.44,10-10.43,9.88-18.59A38.34,38.34,0,0,0,287,88c-11.55-20-28.65-32.3-50.06-38.53-2.3-.67-3.23-.1-3.81,2.28a49.26,49.26,0,0,1-14.71,24.69,33.7,33.7,0,0,1-11,7.23,10.41,10.41,0,0,1,.48-1.25c.37-.6.77-1.18,1.16-1.77a48.22,48.22,0,0,0,7.82-35.13C214.09,27.62,202.53,15.82,185,12c-11.34-2.44-22.72-2-34,0-14.4,2.56-28,7.4-39.8,16.58S92.3,49.79,93.21,65.72c.13,2.17.49,4.32.76,6.63C92.71,72,92.6,71,92.23,70.22A53.69,53.69,0,0,0,87,62a19.48,19.48,0,0,0-16.56-8.21,64.4,64.4,0,0,0-12.74,1.77C38.46,59.61,25,73.31,21.81,92.54c-1.55,9.25.8,17.2,8.85,22.56C32.82,116.53,35,117.93,37.59,119.6Zm195.15,90.15a249.75,249.75,0,0,0-3.05-44.05c-.64-4.11-2.26-6-6.2-7.07-21.93-5.9-44.28-8-66.81-8.77a254.49,254.49,0,0,0-30.37,1.07,172.78,172.78,0,0,0-29,4.74c-1.9.5-3,1.43-3.3,3.52-.17,1.32-.63,2.59-.89,3.9-2.84,14-3.28,28.34-3.57,42.61-.18,9.09.3,18.2.86,27.29.12,2,.8,2.11,2.41,1.55,24.62-8.48,49.9-11.24,75.72-9.49,20.53,1.4,40.84,4.15,60.73,9.73,2.26.64,2.89-.05,3-2.33C232.54,224.69,233,216.93,232.74,209.75Z"/><path class="cls-2" d="M55.49,393.32H51.9l-4.09,14.13h3.66a7.5,7.5,0,0,0,5-1.54c1.25-1,2.25-2.88,3-5.56a11.54,11.54,0,0,0,.5-3.16Q59.94,393.32,55.49,393.32Z"/><path class="cls-2" d="M293.9,252.38H22.1A18.15,18.15,0,0,0,4,270.53V453.3A18.15,18.15,0,0,0,22.1,471.45H293.9a18.16,18.16,0,0,0,18.15-18.15V270.53A18.16,18.16,0,0,0,293.9,252.38Zm-52.37,44.85a7.55,7.55,0,0,0-1-1.08,4.9,4.9,0,0,1-1-1,1.29,1.29,0,0,1-.07-1.14q.42-1.65,4.52-2.91a28.79,28.79,0,0,1,8.54-1.26,7.9,7.9,0,0,1,5.67,2A6.59,6.59,0,0,1,260,297.3a17.08,17.08,0,0,1,6.25-5.85,16,16,0,0,1,7.17-1.62,9.63,9.63,0,0,1,7.07,2.66,9.24,9.24,0,0,1,2.69,6.89,14,14,0,0,1-.71,4.38l-4.38,14.13a2,2,0,0,0-.15.87,1.18,1.18,0,0,0,.25.78.85.85,0,0,0,.69.29,1.85,1.85,0,0,0,1.47-.75c.4-.5.68-.76.82-.76s.43.16.58.47a2.68,2.68,0,0,1,.21,1.11,6.41,6.41,0,0,1-1.36,4.06,10.43,10.43,0,0,1-4.2,3.23,16.06,16.06,0,0,1-6.64,1.25,11.89,11.89,0,0,1-7.53-2.19,7.2,7.2,0,0,1-2.87-5.85,16.58,16.58,0,0,1,1.29-5.95l3.95-10.33a4.71,4.71,0,0,0,.35-1.51,1.85,1.85,0,0,0-.61-1.47,2.12,2.12,0,0,0-1.47-.54,4.21,4.21,0,0,0-3,1.47,8.62,8.62,0,0,0-2.08,3.62l-4.45,14.64a4.47,4.47,0,0,0-.29,1.51,2.49,2.49,0,0,0,.36,1.4,5.9,5.9,0,0,0,1,1.11,3.46,3.46,0,0,1,.71.79,1,1,0,0,1,.08.86,2.17,2.17,0,0,1-1.37,1.37,9.9,9.9,0,0,1-3.37.43H234.11a4.64,4.64,0,0,1-2.69-.61,1.48,1.48,0,0,1-.61-1.62,2.85,2.85,0,0,1,1.5-1.5,6.68,6.68,0,0,0,1.8-1.37,6.57,6.57,0,0,0,1.22-2.51l6.38-20.74a2.66,2.66,0,0,0,.15-1A2,2,0,0,0,241.53,297.23ZM203.07,294a24.11,24.11,0,0,1,14.75-4.48q9.1,0,13.2,2.9a8.78,8.78,0,0,1,4.09,7.43,10.36,10.36,0,0,1-.29,2.51,9.33,9.33,0,0,1-6,6.78,29.93,29.93,0,0,1-11.59,2,44.59,44.59,0,0,1-6.31-.43c-.05,2.49.62,4.23,2,5.24a9.77,9.77,0,0,0,5.81,1.5,13.68,13.68,0,0,0,3.3-.39c1-.26,2.39-.66,4-1.19a10.47,10.47,0,0,1,2.73-.71c.52,0,.79.31.79.93a8.86,8.86,0,0,1-1.87,5.27,15.23,15.23,0,0,1-5.74,4.7,20,20,0,0,1-9.19,1.94q-8,0-13.06-4t-5.09-11.69a26.31,26.31,0,0,1,.57-5Q197,298.45,203.07,294Zm-40.19,0a24.11,24.11,0,0,1,14.75-4.48c6.07,0,10.48,1,13.2,2.9a8.78,8.78,0,0,1,4.09,7.43,10.37,10.37,0,0,1-.28,2.51,9.36,9.36,0,0,1-6,6.78,29.89,29.89,0,0,1-11.59,2,44.7,44.7,0,0,1-6.31-.43c-.05,2.49.62,4.23,2,5.24a9.79,9.79,0,0,0,5.81,1.5,13.68,13.68,0,0,0,3.3-.39c1-.26,2.39-.66,4-1.19a10.47,10.47,0,0,1,2.73-.71c.52,0,.79.31.79.93a8.79,8.79,0,0,1-1.87,5.27,15.15,15.15,0,0,1-5.74,4.7,19.92,19.92,0,0,1-9.18,1.94q-8,0-13.06-4t-5.1-11.69a26.31,26.31,0,0,1,.57-5Q156.82,298.45,162.88,294ZM157,408.46a6.2,6.2,0,0,0,.75,1.22,3.33,3.33,0,0,1,.65,1.65,4.21,4.21,0,0,1-.15.72,2.38,2.38,0,0,1-1.4,1.36,8,8,0,0,1-3,.43H137a4.56,4.56,0,0,1-2.33-.5,1.6,1.6,0,0,1-.83-1.44,2,2,0,0,1,.22-.86,2.65,2.65,0,0,1,.68-1,12.52,12.52,0,0,1,1.19-.82,8,8,0,0,0,1.79-1.44,6.42,6.42,0,0,0,1.22-2.44l9-32.07h-1.65a5.7,5.7,0,0,0-2.58.5,7.07,7.07,0,0,0-2.15,1.86l-2.37,2.95a14.28,14.28,0,0,1-3.2,2.9,6.12,6.12,0,0,1-3.33,1,3.7,3.7,0,0,1-2.59-.86,3.07,3.07,0,0,1-.93-2.37,6.3,6.3,0,0,1,.22-1.58l1.86-6.53a10.61,10.61,0,0,1,1.29-3.05,4,4,0,0,1,2.05-1.5,11.58,11.58,0,0,1,3.77-.47h41.83q3.94,0,3.95,3.23a9.39,9.39,0,0,1-.43,2.51L182,377.67a8.45,8.45,0,0,1-1.94,3.73,4.65,4.65,0,0,1-3.3,1.08,3.81,3.81,0,0,1-2.76-.93,8.87,8.87,0,0,1-1.83-2.94L171,375.66a4.65,4.65,0,0,0-1.22-1.86,3.23,3.23,0,0,0-2-.5h-1.65L157,405.37a7.67,7.67,0,0,0-.21,1.65A3.54,3.54,0,0,0,157,408.46ZM117.49,294q.44-1.65,4.52-2.91a28.89,28.89,0,0,1,8.54-1.26,8.48,8.48,0,0,1,4.88,1.33,6.07,6.07,0,0,1,2.51,3.77q3.45-5.1,9.05-5.1a8.62,8.62,0,0,1,6.42,2.44,8.27,8.27,0,0,1,2.4,6,10.37,10.37,0,0,1-.28,2.51,7.88,7.88,0,0,1-2.73,4.52,7.5,7.5,0,0,1-4.81,1.58,5.86,5.86,0,0,1-4.12-1.29,11.77,11.77,0,0,1-2.48-3.44,8,8,0,0,0-1.08-1.8,1.48,1.48,0,0,0-1.15-.57,1.68,1.68,0,0,0-1.25.57,5.34,5.34,0,0,0-1,2l-5.53,17.94a3.24,3.24,0,0,0-.14,1.08,2.23,2.23,0,0,0,.54,1.54,6.65,6.65,0,0,0,1.47,1.19,5.42,5.42,0,0,1,1.15.93,1.19,1.19,0,0,1,.21.93,1.73,1.73,0,0,1-1,1.37,7.8,7.8,0,0,1-3,.43H112.18a4.66,4.66,0,0,1-2.69-.61,1.49,1.49,0,0,1-.61-1.62,2.84,2.84,0,0,1,1.51-1.5,6.79,6.79,0,0,0,1.79-1.37,6.29,6.29,0,0,0,1.22-2.51l6.39-20.74a2.92,2.92,0,0,0,.14-1,2,2,0,0,0-.32-1.22,8.16,8.16,0,0,0-1-1.08,4.74,4.74,0,0,1-1-1A1.32,1.32,0,0,1,117.49,294ZM74.58,307.42q1.94-8.91,8.57-13.42a27.28,27.28,0,0,1,15.76-4.52,21.46,21.46,0,0,1,7.67,1.25,12.2,12.2,0,0,1,5.14,3.45,7.37,7.37,0,0,1,1.83,4.84,6.25,6.25,0,0,1-2,4.74,7.47,7.47,0,0,1-5.34,1.86,7.71,7.71,0,0,1-5.39-1.76,6.12,6.12,0,0,1-1.93-4.77,11.33,11.33,0,0,1,.43-3,11.58,11.58,0,0,0-8.47,9.25,19.79,19.79,0,0,0-.43,3.88,7.7,7.7,0,0,0,2.15,5.89,8.71,8.71,0,0,0,6.17,2,14.73,14.73,0,0,0,3.95-.46,22.9,22.9,0,0,0,3.37-1.26,5.53,5.53,0,0,1,2.08-.72.77.77,0,0,1,.58.18,1.39,1.39,0,0,1,.14.76,8.76,8.76,0,0,1-2.19,5.56,17.66,17.66,0,0,1-6.24,4.88,19.8,19.8,0,0,1-8.94,2,21,21,0,0,1-9.15-1.9,14.37,14.37,0,0,1-6.17-5.45A15.48,15.48,0,0,1,74,312.37,23.79,23.79,0,0,1,74.58,307.42ZM31,313.73A7.41,7.41,0,0,1,36,312.15a9,9,0,0,1,6.14,2.23,7.2,7.2,0,0,1,2.54,5.67,9.41,9.41,0,0,1-.21,1.93,13.48,13.48,0,0,0,3.3.43,4.72,4.72,0,0,0,3.09-1,3.43,3.43,0,0,0,1.22-2.8,3.69,3.69,0,0,0-1.65-2.83,32,32,0,0,0-5-2.84,47.63,47.63,0,0,1-5.31-2.83,13.12,13.12,0,0,1-3.55-3.34A7.81,7.81,0,0,1,35,302,10.92,10.92,0,0,1,40,292.67q4.92-3.48,14-3.48a43.69,43.69,0,0,1,10.3,1.07,16.71,16.71,0,0,1,6.67,3,5.62,5.62,0,0,1,2.34,4.38,5,5,0,0,1-2,4.09,8.56,8.56,0,0,1-5.49,1.58,10,10,0,0,1-6.06-1.8A5.39,5.39,0,0,1,57.21,297a5.64,5.64,0,0,1,.29-1.79,8.69,8.69,0,0,0-2.3-.36,4.91,4.91,0,0,0-3,.86,2.69,2.69,0,0,0-1.11,2.44A3.77,3.77,0,0,0,53,301.32a44.68,44.68,0,0,0,6,3.23q3.59,1.57,5.92,2.9a13.73,13.73,0,0,1,3.94,3.34,7.32,7.32,0,0,1,1.62,4.74,15,15,0,0,1-.29,2.15q-1.14,4.8-6.39,7.61T50,328.08q-9.63,0-15.25-2.58t-5.64-7.1A5.79,5.79,0,0,1,31,313.73ZM65,446.91a7.07,7.07,0,0,1-1.09.89,6.49,6.49,0,0,1-1.25.66,6.29,6.29,0,0,1-1.34.41,7.3,7.3,0,0,1-1.4.14,7.39,7.39,0,0,1-1.4-.14,6.47,6.47,0,0,1-1.34-.41A6.71,6.71,0,0,1,56,447.8a6.23,6.23,0,0,1-1.09-.89,7.16,7.16,0,0,1,0-10.14,6.8,6.8,0,0,1,1.1-.89,6.71,6.71,0,0,1,1.24-.66,7.17,7.17,0,0,1,1.34-.42,7,7,0,0,1,4.14.42,6.49,6.49,0,0,1,1.25.66,7.71,7.71,0,0,1,1.09.89,7.19,7.19,0,0,1,0,10.14Zm18.31-66q-2.07,7.25-12,9.19a11.08,11.08,0,0,1,5.45,3.33,8.57,8.57,0,0,1,2,5.78,14.86,14.86,0,0,1-.57,3.73,13.2,13.2,0,0,1-6.35,8.29q-4.77,2.7-13.53,2.69H28.51a4.43,4.43,0,0,1-2.33-.5,1.53,1.53,0,0,1-.83-1.36,2.32,2.32,0,0,1,.22-.94,2.44,2.44,0,0,1,.93-1.22c.43-.28.69-.45.79-.5a9.89,9.89,0,0,0,1.86-1.47,6,6,0,0,0,1.22-2.48l8.76-30.93a6.08,6.08,0,0,0,.29-1.79,3.09,3.09,0,0,0-.26-1.33,11.79,11.79,0,0,0-.68-1.25,2.93,2.93,0,0,1-.64-1.51,3.59,3.59,0,0,1,.14-.79,2.05,2.05,0,0,1,1.26-1.33,8.41,8.41,0,0,1,3-.39h25.7a22.54,22.54,0,0,1,8.5,1.47,12.58,12.58,0,0,1,5.53,4,9.57,9.57,0,0,1,1.9,5.85A11.13,11.13,0,0,1,83.33,380.9ZM86,413.41a1.54,1.54,0,0,1-.82-1.36,2.32,2.32,0,0,1,.22-.94,2.44,2.44,0,0,1,.93-1.22c.43-.28.69-.45.79-.5A9.89,9.89,0,0,0,89,407.92a6,6,0,0,0,1.22-2.48L99,374.51a6.08,6.08,0,0,0,.29-1.79,3.09,3.09,0,0,0-.26-1.33,11.79,11.79,0,0,0-.68-1.25,2.93,2.93,0,0,1-.64-1.51,3.59,3.59,0,0,1,.14-.79,2.05,2.05,0,0,1,1.26-1.33,8.41,8.41,0,0,1,3-.39h16.87a4.69,4.69,0,0,1,2.33.47,1.45,1.45,0,0,1,.83,1.32,2.9,2.9,0,0,1-.22.93,2.76,2.76,0,0,1-.61.9,3.09,3.09,0,0,1-.72.58,2,2,0,0,0-.46.32,7.48,7.48,0,0,0-1.87,1.43,6.5,6.5,0,0,0-1.22,2.44l-8.68,30.93a6.2,6.2,0,0,0-.29,1.8,3.52,3.52,0,0,0,.25,1.43,5.93,5.93,0,0,0,.75,1.22,2.91,2.91,0,0,1,.65,1.51,4.69,4.69,0,0,1-.14.72,2,2,0,0,1-1.29,1.4,8.84,8.84,0,0,1-3,.39H88.36A4.5,4.5,0,0,1,86,413.41ZM211.43,449H104.58a7.18,7.18,0,1,1,0-14.35H211.43a7.18,7.18,0,0,1,0,14.35ZM236,372.36,234.18,379a5,5,0,0,1-1.47,2.69,4.44,4.44,0,0,1-2.76.75,4.33,4.33,0,0,1-2.7-.75,4.8,4.8,0,0,1-1.47-2.48l-1.15-4.09a3.53,3.53,0,0,0-.86-1.72,3.07,3.07,0,0,0-1.93-.43H214.3l-3.59,12.77h3.16a2.48,2.48,0,0,0,1.36-.72l2.44-2.15a11.37,11.37,0,0,1,1.87-1.36,4,4,0,0,1,1.94-.43,3.17,3.17,0,0,1,2.11.68,2.18,2.18,0,0,1,.83,1.76,4.22,4.22,0,0,1-.14.86l-2.95,10a4.08,4.08,0,0,1-1.47,2.34,3.78,3.78,0,0,1-2.26.75,3.21,3.21,0,0,1-3-2.08l-1.22-2.51a1.66,1.66,0,0,0-1.58-1.08H209L204.76,407h6.31a5.31,5.31,0,0,0,2.41-.53,8.63,8.63,0,0,0,2.26-1.91l4.3-4.73a8.51,8.51,0,0,1,2.19-1.76,5.47,5.47,0,0,1,2.55-.54,4.32,4.32,0,0,1,2.58.72,2.47,2.47,0,0,1,1,2.15,5.44,5.44,0,0,1-.22,1.36L226.07,409a6.84,6.84,0,0,1-2.3,3.81,7.52,7.52,0,0,1-4.37,1.07H185.16a4.46,4.46,0,0,1-2.33-.5,1.52,1.52,0,0,1-.82-1.36,2.89,2.89,0,0,1,1.15-2.16l.78-.5a9.67,9.67,0,0,0,1.87-1.47,6,6,0,0,0,1.22-2.48l8.83-30.93a5.87,5.87,0,0,0,.28-1.72,3.52,3.52,0,0,0-.25-1.43,5.76,5.76,0,0,0-.75-1.22,3,3,0,0,1-.65-1.51,3.81,3.81,0,0,1,.15-.79,2.05,2.05,0,0,1,1.29-1.33,8.52,8.52,0,0,1,2.94-.39h31.86a6.55,6.55,0,0,1,4.13,1.15,3.78,3.78,0,0,1,1.47,3.15A6.29,6.29,0,0,1,236,372.36Zm54.4-2.22-3,9.9a5.57,5.57,0,0,1-1.26,2.44,3.16,3.16,0,0,1-2.26.72,4.21,4.21,0,0,1-2.76-1,34.21,34.21,0,0,1-3.7-4,19.13,19.13,0,0,0-4.56-4.06A8.25,8.25,0,0,0,268.7,373a3.69,3.69,0,0,0-2.66,1A3.39,3.39,0,0,0,265,376.6a4.22,4.22,0,0,0,1.73,3.19,42.92,42.92,0,0,0,5.38,3.69c2.49,1.49,4.54,2.83,6.17,4A16.85,16.85,0,0,1,282.4,392a11,11,0,0,1,1.72,6.1,15.88,15.88,0,0,1-7.39,13.17,21.93,21.93,0,0,1-11.55,3,26,26,0,0,1-8.33-1.15,24.07,24.07,0,0,1-6.88-3.87l-2.59,2.15a14.49,14.49,0,0,1-2.94,2,6,6,0,0,1-2.58.54,4,4,0,0,1-2.62-.79,2.6,2.6,0,0,1-1-2.15,4.24,4.24,0,0,1,.29-1.51l3.51-10.69a5.27,5.27,0,0,1,1.58-2.66,4.09,4.09,0,0,1,2.58-.78,4.45,4.45,0,0,1,3,1.14,25.13,25.13,0,0,1,3.48,4.17,17.26,17.26,0,0,0,4.27,4.59,8.4,8.4,0,0,0,4.7,1.29,5.92,5.92,0,0,0,3-.61,3.29,3.29,0,0,0,1.47-2,3,3,0,0,0,.15-1.08,4.17,4.17,0,0,0-1.65-3.16,36.14,36.14,0,0,0-5.1-3.44,68.55,68.55,0,0,1-6-4,17,17,0,0,1-4-4.42,11.43,11.43,0,0,1-1.69-6.24,16.16,16.16,0,0,1,.79-4.95,14.29,14.29,0,0,1,6.18-8,19.22,19.22,0,0,1,10.69-3,27,27,0,0,1,7.43,1,29.05,29.05,0,0,1,6.92,3l1.65-1.37a14.19,14.19,0,0,1,2.84-1.86,6,6,0,0,1,2.54-.51,4.47,4.47,0,0,1,2.73.76,2.57,2.57,0,0,1,1,2.19A4,4,0,0,1,290.44,370.14Z"/><path class="cls-2" d="M60.94,372.58H57.72L53.91,386h3.16a7.2,7.2,0,0,0,4.77-1.47q1.75-1.47,2.84-5.28a9.85,9.85,0,0,0,.5-2.94Q65.18,372.58,60.94,372.58Z"/><path class="cls-2" d="M216.81,303.68a11.93,11.93,0,0,0,1.51-6.24c0-1.34-.43-2-1.15-2-.53,0-1.15.42-1.87,1.26a14.23,14.23,0,0,0-2.11,3.77,33.11,33.11,0,0,0-1.76,6,3.28,3.28,0,0,0,.79.07A5,5,0,0,0,216.81,303.68Z"/><path class="cls-2" d="M176.62,303.68a11.84,11.84,0,0,0,1.51-6.24c0-1.34-.43-2-1.15-2q-.78,0-1.86,1.26a14,14,0,0,0-2.12,3.77,34,34,0,0,0-1.76,6,3.33,3.33,0,0,0,.79.07A5,5,0,0,0,176.62,303.68Z"/></g></svg>